<?xml version="1.0" encoding="UTF-8"?>
<svg id="Capa_1" xmlns="http://www.w3.org/2000/svg" baseProfile="tiny" version="1.2" viewBox="0 0 400 100">
  <!-- Generator: Adobe Illustrator 30.2.1, SVG Export Plug-In . SVG Version: 2.1.1 Build 1)  -->
  <path d="M102.9,17.2c4.5,0,8.8.9,12.7,2.6,4,1.7,7.4,4,10.4,7,3,2.9,5.3,6.4,7,10.4,1.7,4,2.6,8.3,2.6,12.8s-.9,8.8-2.6,12.8c-1.7,4-4.1,7.5-7,10.5-3,3-6.5,5.3-10.4,7-4,1.7-8.2,2.6-12.7,2.6s-8.8-.8-12.8-2.6c-4-1.7-7.5-4.1-10.5-7-3-3-5.3-6.5-7-10.5-1.7-4-2.6-8.3-2.6-12.8s.9-8.8,2.6-12.8c1.7-4,4.1-7.5,7-10.4,3-2.9,6.5-5.3,10.5-7,4-1.7,8.3-2.6,12.8-2.6M102.9,67.9c2.2,0,4.3-.5,6.3-1.4,2-.9,3.8-2.2,5.3-3.8,1.5-1.6,2.7-3.5,3.5-5.7.9-2.2,1.3-4.5,1.3-7s-.4-4.8-1.3-7c-.9-2.2-2-4.1-3.5-5.7-1.5-1.6-3.2-2.9-5.3-3.8-2-.9-4.1-1.4-6.3-1.4s-4.5.5-6.5,1.4c-2,.9-3.8,2.2-5.3,3.8-1.5,1.6-2.7,3.5-3.5,5.7-.9,2.2-1.3,4.5-1.3,7s.4,4.8,1.3,7,2,4.1,3.5,5.7,3.2,2.9,5.3,3.8c2,.9,4.2,1.4,6.5,1.4" fill="#2c3a4f"/>
  <path d="M190.7,47.6h.1-.1c0-2.8-.4-5.3-1.2-7.4-.8-2.1-1.9-3.8-3.1-5.2-1.3-1.4-2.8-2.4-4.4-3.1-1.7-.7-3.4-1-5.1-1s-3.5.3-5.2,1c-1.7.7-3.2,1.7-4.5,3.1-1.4,1.4-2.5,3.2-3.3,5.3-.8,2.1-1.2,4.5-1.2,7.2v34.8h-16.4V22.1c0-1.4.5-2.5,1.5-3.5,1-1,2.2-1.5,3.5-1.5s2.7.5,3.7,1.5l6.9,7.2c2.6-2.9,5.7-5.1,9.2-6.5,3.5-1.5,7-2.2,10.7-2.2s6.3.6,9.3,1.7c3,1.1,5.7,2.8,8.1,5.1,2.3,2.3,4.2,5.1,5.6,8.5,1.4,3.4,2.1,7.4,2.1,12h-.1l.4,38h-16.4v-34.8Z" fill="#2c3a4f"/>
  <path d="M279.5,17.6v60.3c0,1.5-.5,2.6-1.4,3.6-.9.9-2.1,1.4-3.6,1.4s-2.6-.5-3.6-1.5l-7-7.2c-2.6,2.9-5.6,5.1-9.1,6.5-3.5,1.5-7,2.2-10.6,2.2s-6.3-.6-9.3-1.7c-3-1.1-5.7-2.8-8.1-5.1-2.3-2.3-4.2-5.1-5.6-8.5-1.4-3.4-2.1-7.4-2.1-12l-.4-38h16.4v34.8c0,2.8.4,5.3,1.2,7.4.8,2.1,1.9,3.8,3.1,5.2,1.3,1.4,2.8,2.4,4.4,3.1,1.7.7,3.4,1,5.1,1s3.5-.3,5.2-1c1.7-.7,3.2-1.7,4.5-3.1,1.4-1.4,2.5-3.1,3.3-5.2.8-2,1.2-4.4,1.2-7.2V17.6h16.4Z" fill="#2c3a4f"/>
  <path d="M371.8,47.6c0-5.6-1.2-9.8-3.5-12.5-2.3-2.7-5-4.1-7.9-4.1s-2.9.3-4.3,1c-1.4.7-2.6,1.7-3.7,3.1-1.1,1.4-1.9,3.2-2.6,5.3-.7,2.1-1,4.5-1,7.2l.4,34.8h-16.4v-34.8c0-5.6-1.2-9.8-3.5-12.5-2.3-2.7-5-4.1-7.9-4.1s-2.9.3-4.3,1c-1.4.7-2.6,1.7-3.7,3.1-1.1,1.4-1.9,3.2-2.6,5.3-.7,2.1-1,4.5-1,7.2v34.8h-16.4V22.1c0-1.4.5-2.5,1.5-3.5,1-1,2.2-1.5,3.5-1.5s2.7.5,3.7,1.5l6.8,7c2.4-2.8,5.1-5,8.3-6.4,3.1-1.5,6.3-2.2,9.5-2.2s7.3,1,10.7,2.9c3.4,2,6.1,5,8.1,9,2.4-4,5.4-7,9-9,3.6-2,7.4-2.9,11.2-2.9s5.6.6,8.3,1.7c2.7,1.1,5.1,2.8,7.1,5.1,2,2.3,3.7,5.1,5,8.5,1.3,3.4,1.9,7.4,1.9,12h-.1l.4,38h-16.4v-34.8Z" fill="#2c3a4f"/>
  <polygon points="47.3 17.6 37.7 33.1 13.7 33.1 13.7 17.6 47.3 17.6" fill="#2c3a4f"/>
  <polygon points="63.8 66.9 63.8 82.4 27.8 82.4 36.9 66.9 63.8 66.9" fill="#2c3a4f"/>
  <polygon points="61.8 17.6 61.8 24.8 36.9 66.9 27.8 82.4 11.8 82.4 11.8 75.2 37.7 33.1 47.3 17.6 61.8 17.6" fill="#bfaa97"/>
</svg>